<svg width="129" height="112" viewBox="0 0 129 112" fill="none" xmlns="http://www.w3.org/2000/svg">
<path d="M28.7434 95.9491C99.2778 95.9491 25.947 31.7452 117.855 31.7452" stroke="#9CB7D7" stroke-width="12" stroke-linecap="square" stroke-dasharray="12 36"/>
<rect x="19.2383" y="39.5923" width="95.0528" height="42.8026" rx="12" fill="#F87A2C"/>
<path d="M46.1686 54.2096C44.9273 53.551 43.3566 53.2216 41.4566 53.2216C39.9366 53.2216 38.5306 53.589 37.2386 54.3236C35.972 55.0583 34.946 56.0843 34.1606 57.4016C33.3753 58.6936 32.9826 60.2136 32.9826 61.9616C32.9826 63.5576 33.3246 65.0016 34.0086 66.2936C34.6926 67.5603 35.6806 68.5736 36.9726 69.3336C38.29 70.0683 39.8606 70.4356 41.6846 70.4356C42.5966 70.4356 43.4453 70.347 44.2306 70.1696C45.0413 69.9923 45.7633 69.739 46.3966 69.4096C46.5233 69.3336 46.6626 69.2956 46.8146 69.2956C47.0933 69.2956 47.3213 69.3843 47.4986 69.5616C47.676 69.739 47.7646 69.967 47.7646 70.2456C47.7646 70.651 47.5873 70.9296 47.2326 71.0816C46.4726 71.487 45.624 71.791 44.6866 71.9936C43.7493 72.2216 42.7486 72.3356 41.6846 72.3356C39.4553 72.3356 37.5426 71.8796 35.9466 70.9676C34.376 70.0556 33.1726 68.8143 32.3366 67.2436C31.5006 65.673 31.0826 63.9123 31.0826 61.9616C31.0826 59.8336 31.564 57.9716 32.5266 56.3756C33.4893 54.7796 34.756 53.5383 36.3266 52.6516C37.8973 51.765 39.6073 51.3216 41.4566 51.3216C43.7366 51.3216 45.6113 51.727 47.0806 52.5376C47.41 52.7403 47.5746 53.019 47.5746 53.3736C47.5746 53.6016 47.486 53.817 47.3086 54.0196C47.1313 54.2223 46.9033 54.3236 46.6246 54.3236C46.4726 54.3236 46.3206 54.2856 46.1686 54.2096ZM79.3201 72.0696C79.0921 72.0696 78.8894 71.9936 78.7121 71.8416C78.5348 71.6896 78.4208 71.487 78.3701 71.2336C78.1928 69.7896 77.9648 68.1556 77.6861 66.3316C77.4074 64.5076 77.1034 62.6203 76.7741 60.6696C76.4448 58.719 76.1028 56.8316 75.7481 55.0076C74.9121 56.705 74.0508 58.4783 73.1641 60.3276C72.3028 62.1516 71.4794 63.9503 70.6941 65.7236C69.9088 67.497 69.1994 69.1563 68.5661 70.7016C68.3888 71.1323 68.1101 71.3476 67.7301 71.3476C67.2741 71.3476 66.9701 71.1703 66.8181 70.8156C66.0834 69.245 65.2728 67.5476 64.3861 65.7236C63.4994 63.8743 62.6128 62.025 61.7261 60.1756C60.8648 58.3263 60.0541 56.6163 59.2941 55.0456C59.0914 56.3883 58.8761 57.807 58.6481 59.3016C58.4454 60.7963 58.2428 62.2783 58.0401 63.7476C57.8628 65.217 57.6854 66.5976 57.5081 67.8896C57.3561 69.1816 57.2294 70.2963 57.1281 71.2336C57.1028 71.4616 56.9888 71.6643 56.7861 71.8416C56.6088 71.9936 56.3934 72.0696 56.1401 72.0696C55.8868 72.0696 55.6714 71.981 55.4941 71.8036C55.3168 71.601 55.2281 71.3603 55.2281 71.0816C55.2281 71.031 55.2661 70.6636 55.3421 69.9796C55.4434 69.1436 55.5828 68.0036 55.7601 66.5596C55.9374 65.1156 56.1401 63.545 56.3681 61.8476C56.5961 60.125 56.8368 58.415 57.0901 56.7176C57.3434 55.0203 57.5841 53.4876 57.8121 52.1196C57.8628 51.8916 57.9768 51.7016 58.1541 51.5496C58.3568 51.3976 58.5721 51.3216 58.8001 51.3216C59.1041 51.3216 59.3321 51.423 59.4841 51.6256C59.7374 51.879 59.9401 52.183 60.0921 52.5376C60.8014 53.9563 61.5741 55.5523 62.4101 57.3256C63.2714 59.0736 64.1581 60.8723 65.0701 62.7216C65.9821 64.571 66.8434 66.3443 67.6541 68.0416C68.3888 66.3696 69.1741 64.5963 70.0101 62.7216C70.8714 60.8216 71.7454 58.9343 72.6321 57.0596C73.5441 55.1596 74.4308 53.399 75.2921 51.7776C75.4948 51.4483 75.7861 51.2836 76.1661 51.2836C76.3941 51.2836 76.6094 51.3596 76.8121 51.5116C77.0148 51.6383 77.1288 51.8156 77.1541 52.0436C77.4581 53.5383 77.7494 55.1343 78.0281 56.8316C78.3321 58.5036 78.6108 60.1123 78.8641 61.6576C79.1174 63.203 79.3201 64.5583 79.4721 65.7236C79.6494 66.8636 79.7761 67.649 79.8521 68.0796C80.0548 69.321 80.1688 70.119 80.1941 70.4736C80.2448 70.8283 80.2701 71.0436 80.2701 71.1196C80.2701 71.373 80.1814 71.601 80.0041 71.8036C79.8268 71.981 79.5988 72.0696 79.3201 72.0696ZM89.934 71.9936C89.6806 71.9936 89.4526 71.905 89.25 71.7276C89.0726 71.525 88.984 71.297 88.984 71.0436V52.6136C88.984 52.335 89.0726 52.107 89.25 51.9296C89.4526 51.7523 89.6806 51.6636 89.934 51.6636H95.368C96.8626 51.6636 98.1673 51.9676 99.282 52.5756C100.397 53.1583 101.258 53.9563 101.866 54.9696C102.499 55.983 102.816 57.1483 102.816 58.4656C102.816 59.6816 102.537 60.809 101.98 61.8476C101.448 62.8863 100.625 63.7223 99.51 64.3556C98.4206 64.989 97.04 65.3056 95.368 65.3056H90.884V71.0436C90.884 71.297 90.7953 71.525 90.618 71.7276C90.4406 71.905 90.2126 71.9936 89.934 71.9936ZM90.884 53.5636V63.4056H95.368C97.1666 63.4056 98.5346 62.937 99.472 61.9996C100.435 61.037 100.916 59.859 100.916 58.4656C100.916 56.9963 100.397 55.8183 99.358 54.9316C98.3193 54.0196 96.9893 53.5636 95.368 53.5636H90.884Z" fill="white"/>
<path d="M46.1686 54.2096L44.9969 56.418L45.0236 56.4322L45.0506 56.4457L46.1686 54.2096ZM37.2386 54.3236L36.0029 52.1504L35.9936 52.1557L35.9844 52.161L37.2386 54.3236ZM34.1606 57.4016L36.297 58.7002L36.3025 58.691L36.308 58.6818L34.1606 57.4016ZM34.0086 66.2936L31.7992 67.4633L31.804 67.4724L31.8089 67.4815L34.0086 66.2936ZM36.9726 69.3336L35.7051 71.4885L35.7299 71.503L35.755 71.517L36.9726 69.3336ZM44.2306 70.1696L43.6964 67.7274L43.6882 67.7292L43.68 67.731L44.2306 70.1696ZM46.3966 69.4096L47.55 71.6277L47.6176 71.5925L47.6829 71.5534L46.3966 69.4096ZM47.4986 69.5616L49.2664 67.7939L49.2664 67.7939L47.4986 69.5616ZM47.2326 71.0816L46.2478 68.7838L46.1501 68.8257L46.0562 68.8757L47.2326 71.0816ZM44.6866 71.9936L44.1583 69.5501L44.127 69.5569L44.0958 69.5645L44.6866 71.9936ZM35.9466 70.9676L34.6913 73.1296L34.6988 73.1339L34.7063 73.1382L35.9466 70.9676ZM32.3366 67.2436L30.1298 68.4182L30.1298 68.4182L32.3366 67.2436ZM32.5266 56.3756L34.6674 57.6669L34.6674 57.6669L32.5266 56.3756ZM36.3266 52.6516L37.5556 54.8287L37.5556 54.8287L36.3266 52.6516ZM47.0806 52.5376L48.3909 50.4085L48.3403 50.3774L48.2883 50.3487L47.0806 52.5376ZM47.3086 54.0196L49.1901 55.6659L49.1901 55.6659L47.3086 54.0196ZM47.3404 52.0012C45.6337 51.0956 43.6278 50.7216 41.4566 50.7216V55.7216C43.0855 55.7216 44.2209 56.0063 44.9969 56.418L47.3404 52.0012ZM41.4566 50.7216C39.5137 50.7216 37.6804 51.1965 36.0029 52.1504L38.4744 56.4968C39.3809 55.9814 40.3596 55.7216 41.4566 55.7216V50.7216ZM35.9844 52.161C34.3321 53.1193 33.0057 54.4568 32.0133 56.1215L36.308 58.6818C36.8863 57.7118 37.6119 56.9972 38.4929 56.4862L35.9844 52.161ZM32.0243 56.1031C30.966 57.8442 30.4826 59.8284 30.4826 61.9616H35.4826C35.4826 60.5989 35.7846 59.543 36.297 58.7002L32.0243 56.1031ZM30.4826 61.9616C30.4826 63.9272 30.9073 65.7786 31.7992 67.4633L36.2181 65.1239C35.742 64.2246 35.4826 63.1881 35.4826 61.9616H30.4826ZM31.8089 67.4815C32.7188 69.1665 34.037 70.5072 35.7051 71.4885L38.2402 67.1788C37.3243 66.64 36.6665 65.9541 36.2084 65.1057L31.8089 67.4815ZM35.755 71.517C37.5151 72.4987 39.5232 72.9356 41.6846 72.9356V67.9356C40.1981 67.9356 39.0648 67.6379 38.1903 67.1502L35.755 71.517ZM41.6846 72.9356C42.7579 72.9356 43.7933 72.8313 44.7813 72.6082L43.68 67.731C43.0974 67.8626 42.4354 67.9356 41.6846 67.9356V72.9356ZM44.7649 72.6119C45.7569 72.3949 46.6924 72.0736 47.55 71.6277L45.2433 67.1916C44.8342 67.4043 44.3257 67.5897 43.6964 67.7274L44.7649 72.6119ZM47.6829 71.5534C47.4094 71.7175 47.102 71.7956 46.8146 71.7956V66.7956C46.2233 66.7956 45.6373 66.9498 45.1104 67.2659L47.6829 71.5534ZM46.8146 71.7956C46.6867 71.7956 46.5007 71.7747 46.2885 71.6921C46.0712 71.6076 45.881 71.4795 45.7309 71.3294L49.2664 67.7939C48.5661 67.0935 47.6756 66.7956 46.8146 66.7956V71.7956ZM45.7309 71.3294C45.5807 71.1793 45.4527 70.9891 45.3681 70.7717C45.2856 70.5595 45.2646 70.3735 45.2646 70.2456H50.2646C50.2646 69.3847 49.9668 68.4942 49.2664 67.7939L45.7309 71.3294ZM45.2646 70.2456C45.2646 70.0811 45.3034 69.7607 45.5225 69.4164C45.747 69.0636 46.0426 68.8717 46.2478 68.7838L48.2174 73.3795C48.7774 73.1395 49.3389 72.7323 49.7408 72.1008C50.1372 71.4778 50.2646 70.8154 50.2646 70.2456H45.2646ZM46.0562 68.8757C45.5218 69.1607 44.8949 69.3908 44.1583 69.5501L45.215 74.4372C46.3531 74.1911 47.4235 73.8132 48.4091 73.2875L46.0562 68.8757ZM44.0958 69.5645C43.3706 69.7409 42.5698 69.8356 41.6846 69.8356V74.8356C42.9275 74.8356 44.1281 74.7024 45.2775 74.4228L44.0958 69.5645ZM41.6846 69.8356C39.7981 69.8356 38.3325 69.4516 37.187 68.797L34.7063 73.1382C36.7528 74.3077 39.1125 74.8356 41.6846 74.8356V69.8356ZM37.202 68.8056C36.0255 68.1225 35.1558 67.2194 34.5435 66.069L30.1298 68.4182C31.1895 70.4092 32.7265 71.9887 34.6913 73.1296L37.202 68.8056ZM34.5435 66.069C33.9181 64.8939 33.5826 63.5429 33.5826 61.9616H28.5826C28.5826 64.2816 29.0832 66.452 30.1298 68.4182L34.5435 66.069ZM33.5826 61.9616C33.5826 60.2229 33.9716 58.8204 34.6674 57.6669L30.3859 55.0844C29.1564 57.1228 28.5826 59.4443 28.5826 61.9616H33.5826ZM34.6674 57.6669C35.4153 56.4269 36.373 55.4963 37.5556 54.8287L35.0977 50.4746C33.139 51.5803 31.5634 53.1323 30.3859 55.0844L34.6674 57.6669ZM37.5556 54.8287C38.7415 54.1592 40.0266 53.8216 41.4566 53.8216V48.8216C39.1881 48.8216 37.0531 49.3707 35.0977 50.4746L37.5556 54.8287ZM41.4566 53.8216C43.4592 53.8216 44.8824 54.1801 45.873 54.7266L48.2883 50.3487C46.3402 49.2738 44.0141 48.8216 41.4566 48.8216V53.8216ZM45.7704 54.6668C45.6559 54.5963 45.46 54.4431 45.2988 54.1704C45.1321 53.8883 45.0746 53.5996 45.0746 53.3736H50.0746C50.0746 52.0606 49.3794 51.0168 48.3909 50.4085L45.7704 54.6668ZM45.0746 53.3736C45.0746 53.154 45.1192 52.9419 45.1965 52.7542C45.2714 52.5723 45.363 52.4467 45.4272 52.3734L49.1901 55.6659C49.69 55.0945 50.0746 54.3136 50.0746 53.3736H45.0746ZM45.4272 52.3734C45.5582 52.2236 45.746 52.0712 45.9893 51.9631C46.2304 51.8559 46.4552 51.8236 46.6246 51.8236V56.8236C47.5956 56.8236 48.5195 56.4323 49.1901 55.6659L45.4272 52.3734ZM46.6246 51.8236C46.9046 51.8236 47.133 51.8967 47.2867 51.9736L45.0506 56.4457C45.5083 56.6745 46.0407 56.8236 46.6246 56.8236V51.8236ZM78.7121 71.8416L77.0851 73.7398L77.0851 73.7398L78.7121 71.8416ZM78.3701 71.2336L75.8887 71.5383L75.9002 71.6317L75.9186 71.7239L78.3701 71.2336ZM77.6861 66.3316L75.2148 66.7092L75.2148 66.7092L77.6861 66.3316ZM76.7741 60.6696L74.309 61.0858L74.309 61.0858L76.7741 60.6696ZM75.7481 55.0076L78.2021 54.5304L76.7853 47.2438L73.5054 53.903L75.7481 55.0076ZM73.1641 60.3276L70.9098 59.2468L70.9066 59.2534L70.9035 59.2601L73.1641 60.3276ZM70.6941 65.7236L72.98 66.7359L72.98 66.7359L70.6941 65.7236ZM68.5661 70.7016L70.8778 71.6535L70.8793 71.6497L68.5661 70.7016ZM66.8181 70.8156L69.1159 69.8308L69.0999 69.7933L69.0826 69.7564L66.8181 70.8156ZM64.3861 65.7236L62.1318 66.8045L62.1377 66.8166L64.3861 65.7236ZM61.7261 60.1756L59.4598 61.2311L59.4657 61.2438L59.4718 61.2564L61.7261 60.1756ZM59.2941 55.0456L61.5445 53.9567L58.0273 46.6879L56.8221 54.6725L59.2941 55.0456ZM58.6481 59.3016L56.1767 58.9246L56.1735 58.9451L56.1708 58.9657L58.6481 59.3016ZM58.0401 63.7476L55.5635 63.406L55.5606 63.427L55.5581 63.4481L58.0401 63.7476ZM57.5081 67.8896L55.0313 67.5497L55.028 67.5736L55.0252 67.5975L57.5081 67.8896ZM57.1281 71.2336L59.6128 71.5097L59.6136 71.5023L57.1281 71.2336ZM56.7861 71.8416L58.4131 73.7398L58.4227 73.7315L58.4323 73.7231L56.7861 71.8416ZM55.4941 71.8036L53.6126 73.4499L53.6675 73.5125L53.7263 73.5714L55.4941 71.8036ZM55.3421 69.9796L52.8603 69.6788L52.8588 69.6912L52.8574 69.7035L55.3421 69.9796ZM55.7601 66.5596L53.2787 66.2549L55.7601 66.5596ZM56.3681 61.8476L58.8458 62.1805L58.8465 62.1756L56.3681 61.8476ZM57.8121 52.1196L55.3716 51.5773L55.3571 51.6426L55.3461 51.7086L57.8121 52.1196ZM58.1541 51.5496L56.6541 49.5496L56.5889 49.5985L56.5271 49.6515L58.1541 51.5496ZM59.4841 51.6256L57.4841 53.1256L57.5907 53.2678L57.7163 53.3934L59.4841 51.6256ZM60.0921 52.5376L57.7942 53.5224L57.8232 53.5899L57.856 53.6557L60.0921 52.5376ZM62.4101 57.3256L60.1488 58.3917L60.158 58.4112L60.1676 58.4306L62.4101 57.3256ZM65.0701 62.7216L67.3123 61.6159L67.3123 61.6159L65.0701 62.7216ZM67.6541 68.0416L65.3982 69.1191L67.7488 74.0407L69.9429 69.0473L67.6541 68.0416ZM70.0101 62.7216L67.7331 61.6894L67.73 61.6964L67.7268 61.7034L70.0101 62.7216ZM72.6321 57.0596L70.3783 55.9778L70.3752 55.9842L70.3721 55.9907L72.6321 57.0596ZM75.2921 51.7776L73.1629 50.4674L73.1214 50.5348L73.0843 50.6047L75.2921 51.7776ZM76.8121 51.5116L75.3121 53.5116L75.397 53.5753L75.4871 53.6316L76.8121 51.5116ZM77.1541 52.0436L74.6694 52.3197L74.6818 52.4316L74.7042 52.5419L77.1541 52.0436ZM78.0281 56.8316L75.5611 57.2366L75.5646 57.2578L75.5684 57.2788L78.0281 56.8316ZM78.8641 61.6576L81.3312 61.2532L81.3312 61.2532L78.8641 61.6576ZM79.4721 65.7236L76.9931 66.047L76.9971 66.0775L77.0018 66.1079L79.4721 65.7236ZM79.8521 68.0796L82.3194 67.6768L82.3168 67.661L82.314 67.6452L79.8521 68.0796ZM80.1941 70.4736L77.7004 70.6517L77.7067 70.7398L77.7192 70.8272L80.1941 70.4736ZM80.0041 71.8036L81.7719 73.5714L81.8307 73.5125L81.8855 73.4499L80.0041 71.8036ZM79.3201 69.5696C79.4897 69.5696 79.6808 69.599 79.8749 69.6718C80.0681 69.7443 80.2234 69.8443 80.3391 69.9435L77.0851 73.7398C77.7035 74.2698 78.4796 74.5696 79.3201 74.5696V69.5696ZM80.3391 69.9435C80.4713 70.0568 80.5856 70.1955 80.6725 70.35C80.7579 70.5018 80.801 70.6404 80.8215 70.7433L75.9186 71.7239C76.0666 72.4639 76.4379 73.185 77.0851 73.7398L80.3391 69.9435ZM80.8514 70.9289C80.6705 69.4552 80.4389 67.7962 80.1574 65.9541L75.2148 66.7092C75.4907 68.515 75.715 70.1241 75.8887 71.5383L80.8514 70.9289ZM80.1574 65.9541C79.8766 64.1163 79.5706 62.216 79.2392 60.2534L74.309 61.0858C74.6363 63.0245 74.9382 64.899 75.2148 66.7092L80.1574 65.9541ZM79.2392 60.2534C78.9066 58.2837 78.561 56.376 78.2021 54.5304L73.294 55.4848C73.6445 57.2873 73.9829 59.1542 74.309 61.0858L79.2392 60.2534ZM73.5054 53.903C72.6652 55.6089 71.8 57.3902 70.9098 59.2468L75.4184 61.4084C76.3015 59.5664 77.159 57.801 77.9908 56.1122L73.5054 53.903ZM70.9035 59.2601C70.0338 61.1017 69.2021 62.9188 68.4082 64.7113L72.98 66.7359C73.7568 64.9818 74.5717 63.2016 75.4247 61.3951L70.9035 59.2601ZM68.4082 64.7113C67.6149 66.5026 66.8963 68.1836 66.2528 69.7536L70.8793 71.6497C71.5026 70.129 72.2026 68.4913 72.98 66.7359L68.4082 64.7113ZM66.2544 69.7497C66.2803 69.6868 66.3942 69.4407 66.6955 69.2079C67.0294 68.9499 67.4134 68.8476 67.7301 68.8476V73.8476C68.4268 73.8476 69.1401 73.6377 69.7527 73.1643C70.3326 72.7162 70.6745 72.1471 70.8778 71.6535L66.2544 69.7497ZM67.7301 68.8476C67.8168 68.8476 68.0923 68.8642 68.4198 69.0552C68.7758 69.2629 69.0023 69.5655 69.1159 69.8308L64.5202 71.8004C64.7859 72.4204 65.2404 72.9891 65.9004 73.3741C66.5319 73.7424 67.1873 73.8476 67.7301 73.8476V68.8476ZM69.0826 69.7564C68.3419 68.1727 67.5257 66.464 66.6345 64.6306L62.1377 66.8166C63.0198 68.6312 63.825 70.3172 64.5536 71.8748L69.0826 69.7564ZM66.6404 64.6428C65.7537 62.7935 64.867 60.9441 63.9804 59.0948L59.4718 61.2564C60.3585 63.1058 61.2451 64.9551 62.1318 66.8044L66.6404 64.6428ZM63.9923 59.1201C63.1266 57.2614 62.3107 55.5401 61.5445 53.9567L57.0437 56.1345C57.7975 57.6924 58.6029 59.3912 59.4598 61.2311L63.9923 59.1201ZM56.8221 54.6725C56.6196 56.0137 56.4045 57.4311 56.1767 58.9246L61.1195 59.6786C61.3477 58.1828 61.5632 56.7628 61.7661 55.4188L56.8221 54.6725ZM56.1708 58.9657C55.9683 60.4585 55.7659 61.9386 55.5635 63.406L60.5166 64.0892C60.7196 62.618 60.9225 61.1341 61.1254 59.6375L56.1708 58.9657ZM55.5581 63.4481C55.3822 64.9057 55.2066 66.2728 55.0313 67.5497L59.9849 68.2296C60.1643 66.9225 60.3433 65.5282 60.5221 64.0472L55.5581 63.4481ZM55.0252 67.5975C54.8726 68.8946 54.745 70.0175 54.6426 70.9649L59.6136 71.5023C59.7138 70.5751 59.8396 69.4686 59.991 68.1817L55.0252 67.5975ZM54.6434 70.9575C54.6683 70.733 54.7393 70.5183 54.8446 70.331C54.9468 70.1494 55.0608 70.0293 55.1398 69.9602L58.4323 73.7231C59.0183 73.2103 59.5067 72.4648 59.6128 71.5097L54.6434 70.9575ZM55.1591 69.9435C55.2993 69.8233 55.4694 69.7222 55.6595 69.6551C55.8467 69.5891 56.0142 69.5696 56.1401 69.5696V74.5696C56.9357 74.5696 57.7429 74.3142 58.4131 73.7398L55.1591 69.9435ZM56.1401 69.5696C56.3111 69.5696 56.5206 69.6009 56.7405 69.6914C56.9608 69.7822 57.1353 69.9093 57.2619 70.0359L53.7263 73.5714C54.3778 74.2229 55.2313 74.5696 56.1401 74.5696V69.5696ZM57.3755 70.1574C57.478 70.2745 57.5739 70.4262 57.6404 70.6069C57.7065 70.7863 57.7281 70.9516 57.7281 71.0816H52.7281C52.7281 71.9428 53.0216 72.7744 53.6126 73.4499L57.3755 70.1574ZM57.7281 71.0816C57.7281 71.1435 57.7256 71.1898 57.7251 71.1998C57.7242 71.2168 57.7234 71.228 57.7232 71.2302C57.7229 71.2347 57.7232 71.2297 57.7249 71.2106C57.7283 71.1735 57.7342 71.1134 57.7433 71.0254C57.7613 70.8512 57.789 70.5958 57.8268 70.2557L52.8574 69.7035C52.8192 70.0475 52.7898 70.3177 52.7699 70.5109C52.7605 70.6009 52.7281 70.8893 52.7281 71.0816H57.7281ZM57.8239 70.2805C57.925 69.4464 58.0642 68.3078 58.2414 66.8643L53.2787 66.2549C53.1013 67.6994 52.9618 68.8409 52.8603 69.6788L57.8239 70.2805ZM58.2414 66.8643C58.4174 65.4312 58.6189 63.87 58.8458 62.1805L53.8903 61.5148C53.6613 63.2199 53.4574 64.8001 53.2787 66.2549L58.2414 66.8643ZM58.8465 62.1756C59.0727 60.4665 59.3114 58.7702 59.5627 57.0867L54.6175 56.3486C54.3621 58.0597 54.1195 59.7834 53.8897 61.5196L58.8465 62.1756ZM59.5627 57.0867C59.8144 55.4002 60.0529 53.8818 60.2781 52.5306L55.3461 51.7086C55.1153 53.0934 54.8724 54.6404 54.6175 56.3486L59.5627 57.0867ZM60.2526 52.6619C60.2228 52.796 60.1679 52.9447 60.0793 53.0924C59.9907 53.24 59.8853 53.3584 59.7811 53.4478L56.5271 49.6515C55.9391 50.1555 55.5396 50.8213 55.3716 51.5773L60.2526 52.6619ZM59.6541 53.5496C59.5742 53.6095 59.4561 53.6809 59.2996 53.7361C59.1405 53.7923 58.97 53.8216 58.8001 53.8216V48.8216C57.9712 48.8216 57.2389 49.111 56.6541 49.5496L59.6541 53.5496ZM58.8001 53.8216C58.677 53.8216 58.4512 53.801 58.1837 53.6821C57.9018 53.5568 57.6599 53.36 57.4841 53.1256L61.4841 50.1256C60.763 49.1642 59.7141 48.8216 58.8001 48.8216V53.8216ZM57.7163 53.3934C57.7279 53.405 57.7578 53.4374 57.7942 53.5224L62.3899 51.5528C62.1224 50.9285 61.7469 50.3529 61.2519 49.8579L57.7163 53.3934ZM57.856 53.6557C58.555 55.0536 59.3192 56.6319 60.1488 58.3917L64.6714 56.2596C63.829 54.4727 63.0478 52.8589 62.3282 51.4196L57.856 53.6557ZM60.1676 58.4306C61.029 60.1789 61.9158 61.9778 62.8279 63.8274L67.3123 61.6159C66.4004 59.7668 65.5138 57.9684 64.6526 56.2206L60.1676 58.4306ZM62.8279 63.8274C63.7357 65.6682 64.5924 67.432 65.3982 69.1191L69.91 66.9642C69.0944 65.2565 68.2285 63.4737 67.3123 61.6159L62.8279 63.8274ZM69.9429 69.0473C70.6755 67.38 71.459 65.6108 72.2933 63.7398L67.7268 61.7034C66.8892 63.5817 66.102 65.3593 65.3653 67.0359L69.9429 69.0473ZM72.287 63.7538C73.1428 61.866 74.0112 59.9909 74.8921 58.1285L70.3721 55.9907C69.4797 57.8776 68.6 59.7772 67.7331 61.6894L72.287 63.7538ZM74.8859 58.1414C75.7853 56.2677 76.6566 54.5378 77.4999 52.9505L73.0843 50.6047C72.2049 52.2601 71.3029 54.0515 70.3783 55.9778L74.8859 58.1414ZM77.4212 53.0879C77.3357 53.2268 77.1689 53.4274 76.8927 53.5835C76.6146 53.7407 76.3478 53.7836 76.1661 53.7836V48.7836C74.8994 48.7836 73.8108 49.4146 73.1629 50.4674L77.4212 53.0879ZM76.1661 53.7836C75.9962 53.7836 75.8257 53.7543 75.6665 53.6981C75.5101 53.6429 75.3919 53.5715 75.3121 53.5116L78.3121 49.5116C77.7273 49.073 76.995 48.7836 76.1661 48.7836V53.7836ZM75.4871 53.6316C75.3175 53.5257 75.1142 53.3522 74.9466 53.0915C74.7772 52.8279 74.6955 52.5545 74.6694 52.3197L79.6388 51.7675C79.5251 50.7438 78.9564 49.9037 78.1371 49.3916L75.4871 53.6316ZM74.7042 52.5419C75.0012 54.002 75.2869 55.5666 75.5611 57.2366L80.4951 56.4266C80.2119 54.7019 79.915 53.0746 79.6039 51.5453L74.7042 52.5419ZM75.5684 57.2788C75.87 58.9378 76.1462 60.5321 76.397 62.0621L81.3312 61.2532C81.0753 59.6924 80.7941 58.0695 80.4878 56.3844L75.5684 57.2788ZM76.397 62.0621C76.6473 63.5887 76.8456 64.9159 76.9931 66.047L81.9511 65.4003C81.7946 64.2007 81.5876 62.8172 81.3312 61.2532L76.397 62.0621ZM77.0018 66.1079C77.1789 67.2462 77.3091 68.0551 77.3901 68.5141L82.314 67.6452C82.2431 67.2429 82.12 66.4811 81.9424 65.3394L77.0018 66.1079ZM77.3848 68.4825C77.5927 69.756 77.6848 70.4331 77.7004 70.6517L82.6877 70.2955C82.6527 69.8049 82.5168 68.8859 82.3194 67.6768L77.3848 68.4825ZM77.7192 70.8272C77.7432 70.9954 77.759 71.1149 77.7682 71.1932C77.7704 71.2119 77.772 71.2263 77.7731 71.237C77.7737 71.2423 77.7741 71.2463 77.7744 71.2491C77.7746 71.252 77.7747 71.2532 77.7747 71.2531C77.7747 71.253 77.7745 71.2508 77.7742 71.2469C77.774 71.243 77.7735 71.2363 77.773 71.2272C77.7722 71.213 77.7701 71.1738 77.7701 71.1196H82.7701C82.7701 70.8212 82.7075 70.3896 82.669 70.1201L77.7192 70.8272ZM77.7701 71.1196C77.7701 70.9475 77.8016 70.7597 77.8736 70.5745C77.9447 70.3916 78.0391 70.2528 78.1226 70.1574L81.8855 73.4499C82.4343 72.8227 82.7701 72.0188 82.7701 71.1196H77.7701ZM78.2363 70.0359C78.3865 69.8857 78.5766 69.7576 78.794 69.6731C79.0062 69.5906 79.1922 69.5696 79.3201 69.5696V74.5696C80.181 74.5696 81.0715 74.2717 81.7719 73.5714L78.2363 70.0359ZM89.25 71.7276L87.3685 73.3739L87.4783 73.4993L87.6037 73.6091L89.25 71.7276ZM89.25 51.9296L87.6037 50.0482L87.5411 50.103L87.4822 50.1619L89.25 51.9296ZM99.282 52.5756L98.0848 54.7704L98.1042 54.7809L98.1238 54.7912L99.282 52.5756ZM101.866 54.9696L99.7222 56.2559L99.7339 56.2753L99.746 56.2946L101.866 54.9696ZM101.98 61.8476L99.7771 60.6656L99.7658 60.6866L99.7549 60.7079L101.98 61.8476ZM99.51 64.3556L98.2749 62.182L98.2641 62.1881L98.2534 62.1944L99.51 64.3556ZM90.884 65.3056V62.8056H88.384V65.3056H90.884ZM90.618 71.7276L92.3857 73.4954L92.4446 73.4365L92.4994 73.3739L90.618 71.7276ZM90.884 53.5636V51.0636H88.384V53.5636H90.884ZM90.884 63.4056H88.384V65.9056H90.884V63.4056ZM99.358 54.9316L97.7085 56.8102L97.7216 56.8217L97.7348 56.833L99.358 54.9316ZM89.934 69.4936C90.106 69.4936 90.2939 69.5251 90.4791 69.5971C90.662 69.6682 90.8008 69.7627 90.8962 69.8462L87.6037 73.6091C88.2309 74.1578 89.0348 74.4936 89.934 74.4936V69.4936ZM91.1314 70.0814C91.2149 70.1768 91.3094 70.3156 91.3805 70.4985C91.4525 70.6837 91.484 70.8715 91.484 71.0436H86.484C86.484 71.9428 86.8197 72.7467 87.3685 73.3739L91.1314 70.0814ZM91.484 71.0436V52.6136H86.484V71.0436H91.484ZM91.484 52.6136C91.484 52.7415 91.463 52.9275 91.3805 53.1397C91.296 53.3571 91.1679 53.5473 91.0177 53.6974L87.4822 50.1619C86.7819 50.8622 86.484 51.7527 86.484 52.6136H91.484ZM90.8962 53.8111C90.8008 53.8946 90.662 53.989 90.4791 54.0601C90.2939 54.1321 90.106 54.1636 89.934 54.1636V49.1636C89.0348 49.1636 88.2309 49.4994 87.6037 50.0482L90.8962 53.8111ZM89.934 54.1636H95.368V49.1636H89.934V54.1636ZM95.368 54.1636C96.5186 54.1636 97.3975 54.3954 98.0848 54.7704L100.479 50.3809C98.9371 49.5398 97.2067 49.1636 95.368 49.1636V54.1636ZM98.1238 54.7912C98.858 55.175 99.3664 55.6627 99.7222 56.2559L104.01 53.6834C103.15 52.2498 101.935 51.1416 100.44 50.3601L98.1238 54.7912ZM99.746 56.2946C100.106 56.8706 100.316 57.5672 100.316 58.4656H105.316C105.316 56.7294 104.893 55.0954 103.986 53.6446L99.746 56.2946ZM100.316 58.4656C100.316 59.2827 100.133 60.0021 99.7771 60.6656L104.183 63.0297C104.942 61.6158 105.316 60.0806 105.316 58.4656H100.316ZM99.7549 60.7079C99.4668 61.2704 99.0093 61.7647 98.2749 62.182L100.745 66.5293C102.24 65.6798 103.429 64.5022 104.205 62.9873L99.7549 60.7079ZM98.2534 62.1944C97.6507 62.5448 96.7384 62.8056 95.368 62.8056V67.8056C97.3415 67.8056 99.1906 67.4331 100.767 66.5169L98.2534 62.1944ZM95.368 62.8056H90.884V67.8056H95.368V62.8056ZM88.384 65.3056V71.0436H93.384V65.3056H88.384ZM88.384 71.0436C88.384 70.8715 88.4154 70.6837 88.4874 70.4985C88.5586 70.3156 88.653 70.1768 88.7365 70.0814L92.4994 73.3739C93.0482 72.7467 93.384 71.9428 93.384 71.0436H88.384ZM88.8502 69.9599C89.0003 69.8097 89.1905 69.6816 89.4078 69.5971C89.62 69.5146 89.806 69.4936 89.934 69.4936V74.4936C90.7949 74.4936 91.6854 74.1957 92.3857 73.4954L88.8502 69.9599ZM88.384 53.5636V63.4056H93.384V53.5636H88.384ZM90.884 65.9056H95.368V60.9056H90.884V65.9056ZM95.368 65.9056C97.5867 65.9056 99.6859 65.3212 101.24 63.7674L97.7042 60.2319C97.3833 60.5527 96.7465 60.9056 95.368 60.9056V65.9056ZM101.24 63.7674C102.683 62.3237 103.416 60.5046 103.416 58.4656H98.416C98.416 59.2133 98.1858 59.7502 97.7042 60.2319L101.24 63.7674ZM103.416 58.4656C103.416 56.3277 102.622 54.4313 100.981 53.0302L97.7348 56.833C98.1708 57.2053 98.416 57.6648 98.416 58.4656H103.416ZM101.007 53.053C99.4356 51.6728 97.4853 51.0636 95.368 51.0636V56.0636C96.4933 56.0636 97.203 56.3664 97.7085 56.8102L101.007 53.053ZM95.368 51.0636H90.884V56.0636H95.368V51.0636Z" fill="white"/>
<ellipse cx="117.796" cy="10.1529" rx="11.1025" ry="10.0058" fill="#FA9E3C"/>
<path d="M107.11 12.007C107.791 15.8287 110.074 18.723 117.843 25.348" stroke="#FA9E3C" stroke-linecap="round"/>
<path d="M128.39 12.007C127.72 15.8287 125.478 18.723 117.843 25.348" stroke="#FA9E3C" stroke-linecap="round"/>
<rect width="8.8133" height="8.04996" transform="matrix(0.798373 -0.602164 0.680477 0.73277 108.96 16.6469)" fill="#FA9E3C"/>
<rect width="8.8133" height="8.04996" transform="matrix(0.798373 -0.602164 0.680477 0.73277 108.96 16.6469)" fill="#FA9E3C"/>
<rect width="8.8133" height="8.04996" transform="matrix(0.798373 -0.602164 0.680477 0.73277 108.96 16.6469)" fill="#FA9E3C"/>
<rect width="8.8133" height="8.04996" transform="matrix(0.798373 -0.602164 0.680477 0.73277 108.96 16.6469)" fill="#FA9E3C"/>
<rect width="8.66194" height="8.19089" transform="matrix(0.687129 -0.726535 0.793039 0.609171 114.156 17.9707)" fill="#FA9E3C"/>
<rect width="8.66194" height="8.19089" transform="matrix(0.687129 -0.726535 0.793039 0.609171 114.156 17.9707)" fill="#FA9E3C"/>
<rect width="8.66194" height="8.19089" transform="matrix(0.687129 -0.726535 0.793039 0.609171 114.156 17.9707)" fill="#FA9E3C"/>
<rect width="8.66194" height="8.19089" transform="matrix(0.687129 -0.726535 0.793039 0.609171 114.156 17.9707)" fill="#FA9E3C"/>
<rect width="8.56193" height="7.87669" rx="1" transform="matrix(0.738038 -0.67476 0.747603 0.664146 111.926 20.224)" fill="#FA9E3C"/>
<rect width="8.56193" height="7.87669" rx="1" transform="matrix(0.738038 -0.67476 0.747603 0.664146 111.926 20.224)" fill="#FA9E3C"/>
<rect width="8.56193" height="7.87669" rx="1" transform="matrix(0.738038 -0.67476 0.747603 0.664146 111.926 20.224)" fill="#FA9E3C"/>
<rect width="8.56193" height="7.87669" rx="1" transform="matrix(0.738038 -0.67476 0.747603 0.664146 111.926 20.224)" fill="#FA9E3C"/>
<path d="M126.354 10.0058C126.354 14.2424 122.543 17.6769 117.842 17.6769C113.141 17.6769 109.331 14.2424 109.331 10.0058C109.331 5.76916 113.141 2.33469 117.842 2.33469C122.543 2.33469 126.354 5.76916 126.354 10.0058Z" fill="white"/>
<rect x="114.142" y="8.33817" width="7.40165" height="5.66995" rx="1" fill="#FA9E3C"/>
<path d="M117.275 5.7275C117.617 5.49204 118.068 5.49204 118.41 5.7275L121.488 7.84887C122.296 8.40581 121.902 9.67227 120.921 9.67227H114.764C113.783 9.67227 113.389 8.40581 114.197 7.84887L117.275 5.7275Z" fill="#FA9E3C"/>
<rect x="115.252" y="9.67226" width="5.18116" height="3.33527" rx="1" fill="white"/>
<ellipse cx="12.553" cy="96.7281" rx="9.55302" ry="8.62615" stroke="#FA9E3C" stroke-width="6"/>
<line x1="4" y1="-4" x2="9.34871" y2="-4" transform="matrix(0.742195 0.670184 -0.742195 0.670184 17.6479 103.054)" stroke="#FA9E3C" stroke-width="8" stroke-linecap="round"/>
<g clip-path="url(#clip0_720_598)">
<path opacity="0.2" d="M8.1055 94.4304C8.07187 94.4824 8.05424 94.5415 8.05445 94.6017V98.7232C8.0548 98.7827 8.07258 98.8411 8.10599 98.8925C8.1394 98.9438 8.18725 98.9864 8.24474 99.0158L12.329 101.085C12.3843 101.113 12.4467 101.127 12.51 101.127L12.5565 96.6624L8.1055 94.4304Z" fill="#FB9E45"/>
<path d="M17.2395 94.2715H17.2348C17.1682 94.1698 17.074 94.0849 16.961 94.0249L12.8767 91.9475C12.7652 91.8918 12.6398 91.8627 12.5124 91.8627C12.3849 91.8627 12.2595 91.8918 12.148 91.9475L8.06372 94.0165C7.9484 94.0752 7.85233 94.1603 7.78525 94.2632C7.78525 94.2637 7.78513 94.2642 7.78489 94.2648C7.78466 94.2653 7.78432 94.2657 7.78389 94.2661C7.78345 94.2665 7.78294 94.2668 7.78238 94.267C7.78182 94.2672 7.78121 94.2673 7.7806 94.2673V94.2757C7.71562 94.3743 7.68191 94.4871 7.68314 94.6017V98.7231C7.68337 98.8423 7.71873 98.9593 7.7856 99.0621C7.85246 99.1649 7.94844 99.2499 8.06372 99.3083L12.148 101.377C12.2508 101.428 12.3652 101.457 12.4822 101.461H12.5472C12.6626 101.456 12.7753 101.427 12.8767 101.377L16.961 99.3083C17.0751 99.249 17.1699 99.1637 17.2359 99.061C17.3018 98.9583 17.3367 98.8418 17.3369 98.7231V94.6017C17.3376 94.4858 17.304 94.3718 17.2395 94.2715ZM12.51 92.5327L16.2138 94.4053L14.7889 95.1326L11.048 93.2725L12.51 92.5327ZM12.5518 96.2779L8.8156 94.4053L10.2869 93.6612L14.0324 95.5213L12.5518 96.2779ZM8.42574 94.9737L12.1805 96.8589L12.1434 100.608L8.42574 98.7231V94.9737ZM12.886 100.604L12.9231 96.8589L14.4129 96.094V97.6865C14.4129 97.7752 14.4521 97.8603 14.5217 97.923C14.5913 97.9857 14.6858 98.0209 14.7842 98.0209C14.8827 98.0209 14.9772 97.9857 15.0468 97.923C15.1164 97.8603 15.1555 97.7752 15.1555 97.6865V95.7136L16.5943 94.9779V98.7231L12.886 100.604Z" fill="#FA9E3C"/>
</g>
<defs>
<clipPath id="clip0_720_598">
<rect width="11.8816" height="10.7006" fill="white" transform="translate(6.5647 91.3121)"/>
</clipPath>
</defs>
</svg>
